<svg xmlns="http://www.w3.org/2000/svg" width="56" height="34" viewBox="0 0 56 34"><g><g><path fill="#ff5353" d="M56 17.237v11.056c0 .63-.5 1.139-1.116 1.139h-5.703c-.519 2.602-2.776 4.566-5.475 4.566-2.698 0-4.956-1.964-5.474-4.566H15.648c-.519 2.602-2.776 4.566-5.475 4.566-2.698 0-4.956-1.964-5.474-4.566H1.114c-.617 0-1.116-.51-1.116-1.14V1.137c0-.63.5-1.14 1.116-1.14H35.47c.616 0 1.115.51 1.115 1.14V2.64h9.286c2.155 0 4.004 1.498 4.496 3.641l1.846 8.055 3.231 1.917c.344.203.555.579.555.984zM13.529 28.293c0-1.89-1.505-3.427-3.356-3.427-1.85 0-3.355 1.538-3.355 3.427 0 1.89 1.505 3.427 3.355 3.427s3.356-1.538 3.356-3.427zm20.825-5.225v-1.807H2.23v5.892H4.7c.518-2.601 2.776-4.566 5.474-4.566 2.699 0 4.956 1.965 5.475 4.566h18.706v-1.807H24.292c-.616 0-1.115-.51-1.115-1.14 0-.628.5-1.138 1.115-1.138zm0-20.793H2.23v16.707h32.125zm8.703 2.644v9.017h6.773L48.195 6.8c-.254-1.108-1.21-1.882-2.324-1.882zm4.005 23.374c0-1.89-1.506-3.427-3.356-3.427-1.775 0-3.231 1.415-3.347 3.199a1.167 1.167 0 0 1 0 .456c.116 1.784 1.572 3.199 3.347 3.199 1.85 0 3.356-1.538 3.356-3.427zm6.706-7.753h-2.122v1.206h2.122zm0-2.278v-.368l-2.832-1.68H41.94c-.616 0-1.115-.51-1.115-1.14V4.92h-4.24v22.234h1.646c.518-2.601 2.776-4.566 5.474-4.566 2.699 0 4.956 1.965 5.475 4.566h4.587v-3.128H50.53c-.616 0-1.115-.51-1.115-1.14v-3.484c0-.63.5-1.14 1.115-1.14zm-32.125 5.945c0 .63-.5 1.14-1.116 1.14h-.94c-.617 0-1.116-.51-1.116-1.14 0-.629.5-1.139 1.115-1.139h.941c.616 0 1.116.51 1.116 1.139z"/></g></g></svg>