<svg xmlns="http://www.w3.org/2000/svg" width="35" height="41" viewBox="0 0 35 41"><g><g><path fill="#ff5353" d="M22.435 29.31c0 1.96-1.567 3.563-3.515 3.588h-.195v1.457c0 .563-.458 1.023-1.017 1.023-.559 0-1.016-.46-1.016-1.023v-1.457h-2a1.023 1.023 0 0 1 0-2.046h4.177c.847 0 1.533-.69 1.533-1.542 0-.852-.686-1.543-1.533-1.543h-2.33c-1.965 0-3.567-1.61-3.567-3.588 0-1.977 1.602-3.588 3.567-3.588h.144v-1.423c0-.562.458-1.023 1.017-1.023.559 0 1.016.46 1.016 1.023v1.423h1.923a1.023 1.023 0 0 1 0 2.045h-4.1c-.847 0-1.533.691-1.533 1.543 0 .853.686 1.542 1.533 1.542h2.33c1.965 0 3.566 1.612 3.566 3.59zM35 33.051c0 4.372-3.541 7.934-7.887 7.934H7.88c-4.346 0-7.887-3.562-7.887-7.934 0-3.29.678-6.536 2.016-9.647 1.068-2.472 2.55-4.867 4.405-7.108 2.212-2.667 4.414-4.475 5.566-5.335l-4.66-7.082c-.262-.401-.211-.938.12-1.279C9.024.964 10.642.197 12.54.197c1.499 0 3.05.46 5.065 1.201.153.06.305.085.483.085.585 0 1.305-.306 2.068-.622.965-.409 2.075-.869 3.287-.869 1.321 0 2.507.537 3.626 1.637.33.315.398.81.186 1.21l-4.32 8.062c1.143.844 3.388 2.668 5.641 5.395 1.864 2.241 3.338 4.636 4.406 7.108 1.338 3.11 2.016 6.358 2.016 9.647zM13.921 10.186h7.083l4.066-7.603c-.694-.494-1.245-.562-1.635-.562-.805 0-1.635.349-2.508.715-.906.384-1.855.776-2.846.776-.407 0-.805-.068-1.178-.204-1.804-.674-3.16-1.083-4.363-1.083-1.126 0-2.067.375-3.05 1.228zM32.95 33.05c0-5.471-1.982-10.644-5.905-15.4-2.474-3.008-4.981-4.883-5.752-5.42h-7.608c-.762.545-3.278 2.412-5.752 5.42-3.914 4.756-5.905 9.937-5.905 15.4 0 3.247 2.626 5.89 5.854 5.89h19.231c3.228 0 5.854-2.643 5.837-5.89z"/></g></g></svg>