<svg xmlns="http://www.w3.org/2000/svg" width="32" height="40" viewBox="0 0 32 40"><g><g><path fill="#ff5353" d="M17.237 13.804c.97 0 1.882.383 2.567 1.079a3.686 3.686 0 0 1 1.062 2.604 3.7 3.7 0 0 1-.976 2.51c.605.658.976 1.541.976 2.511 0 .984-.377 1.909-1.063 2.604a3.575 3.575 0 0 1-2.566 1.078h-.082v1.34c0 .647-.517 1.171-1.155 1.171a1.163 1.163 0 0 1-1.155-1.172V26.19h-2.556a1.164 1.164 0 0 1-1.155-1.171c0-.648.517-1.172 1.155-1.172h.082v-7.7h-.082a1.164 1.164 0 0 1-1.155-1.171c0-.647.517-1.172 1.155-1.172h2.556v-1.339c0-.647.517-1.172 1.155-1.172s1.155.525 1.155 1.172v1.339zm1.32 8.704c0-.738-.593-1.339-1.32-1.339h-2.474c-.028 0-.055-.002-.082-.004v2.682h2.556a1.3 1.3 0 0 0 .932-.392c.25-.254.387-.59.387-.947zm-.387-5.968a1.297 1.297 0 0 0-.933-.392H14.68v2.681c.028-.002.055-.004.083-.004h2.474c.727 0 1.32-.6 1.32-1.338 0-.358-.138-.694-.387-.947zM32 6.188V17.41c0 4.73-1.367 9.311-3.953 13.247a23.545 23.545 0 0 1-10.53 8.798l-1.073.453a1.144 1.144 0 0 1-.889 0l-1.072-.453a23.544 23.544 0 0 1-10.53-8.798A24.058 24.058 0 0 1 0 17.411V6.188c0-.504.318-.952.79-1.112L15.635.056c.237-.081.493-.081.73 0l14.845 5.02c.472.16.79.608.79 1.112zm-2.31.845l-12.535-4.24v4.65c0 .648-.517 1.172-1.155 1.172a1.163 1.163 0 0 1-1.155-1.171V2.793L2.31 7.033v10.378c0 4.266 1.232 8.398 3.564 11.947a21.235 21.235 0 0 0 8.971 7.702v-4.509c0-.647.517-1.172 1.155-1.172s1.155.525 1.155 1.172v4.51a21.235 21.235 0 0 0 8.97-7.703A21.696 21.696 0 0 0 29.69 17.41z"/></g></g></svg>