<svg xmlns="http://www.w3.org/2000/svg" width="38" height="41" viewBox="0 0 38 41"><g><g><path fill="#ff5353" d="M38 21.213v2.463c0 2.998-2.31 5.453-5.22 5.634-.29 4.496-2.47 6.727-4.313 7.821-1.307.776-2.622 1.077-3.454 1.198-.416 1.533-1.8 2.67-3.446 2.67h-2.555c-1.969 0-3.573-1.637-3.573-3.635 0-1.999 1.604-3.627 3.573-3.627h2.547c1.587 0 2.936 1.051 3.403 2.507 1.698-.285 5.356-1.533 5.772-6.925h-1.426a1.03 1.03 0 0 1-1.019-1.034v-11.68c0-.57.459-1.034 1.019-1.034h1.46v-1.56c0-6.813-4.779-11.946-11.128-11.946H18.36c-6.34 0-11.127 5.133-11.127 11.947v1.56h1.46c.56 0 1.018.464 1.018 1.033v11.688a1.03 1.03 0 0 1-1.019 1.034H5.56C2.495 29.327 0 26.795 0 23.685v-2.464c0-2.989 2.3-5.435 5.194-5.633v-1.576c0-3.773 1.316-7.279 3.701-9.88 2.445-2.67 5.806-4.135 9.472-4.135h1.282c3.667 0 7.028 1.465 9.472 4.135 2.385 2.601 3.7 6.107 3.7 9.88v1.576c2.895.19 5.187 2.644 5.178 5.625zM7.69 17.638H5.576c-1.943 0-3.522 1.602-3.522 3.575v2.463c0 1.973 1.579 3.575 3.522 3.575H7.69zm15.413 19.735c0-.862-.687-1.56-1.536-1.56h-2.555c-.849 0-1.536.698-1.536 1.56 0 .86.687 1.558 1.536 1.558h2.555c.849 0 1.536-.698 1.536-1.558zm12.867-16.16c0-1.973-1.578-3.575-3.522-3.575h-2.113v9.613h2.113c1.944 0 3.522-1.602 3.522-3.575z"/></g></g></svg>